name analog
datacolumns 19
datarows 41
range 0.0 0.02
endheader
time	ground_force_vx	ground_force_vy	ground_force_vz	ground_force_px	ground_force_py	ground_force_pz	l_ground_force_vx	l_ground_force_vy	l_ground_force_vz	l_ground_force_px	l_ground_force_py	l_ground_force_pz	ground_torque_x	ground_torque_y	ground_torque_z	l_ground_torque_x	l_ground_torque_y	l_ground_torque_z
0.0	-0.0	-0.0	-0.0	0.4923319220542907	33.95868682861328	-583.6798706054688	2.6191039085388184	-15.953948974609377	-334.26568603515625	-0.0	-0.0	-0.0	-0.0	-0.0	-0.0	98793.875	-12733.44921875	-77.06390380859375
0.0005	-0.0	-0.0	-0.0	0.6388641595840454	33.30315399169922	-581.3911743164062	3.165282249450684	-16.33951187133789	-338.6920166015625	-0.0	-0.0	-0.0	-0.0	-0.0	-0.0	100061.9765625	-12499.7119140625	91.82564544677734
0.001	-0.0	-0.0	-0.0	1.1767843961715698	33.187965393066406	-578.3840942382812	3.221977710723877	-16.53028678894043	-341.3585510253906	-0.0	-0.0	-0.0	-0.0	-0.0	-0.0	101075.1015625	-12028.0888671875	27.756816864013672
0.0015	-0.0	-0.0	-0.0	1.2467000484466553	33.096343994140625	-574.9107055664062	2.941711664199829	-17.088665008544922	-345.3670654296875	-0.0	-0.0	-0.0	-0.0	-0.0	-0.0	101879.6875	-11607.3984375	-116.1375732421875
0.002	-0.0	-0.0	-0.0	1.6949996948242188	32.6963005065918	-571.971435546875	2.958824872970581	-17.781204223632812	-348.45330810546875	-0.0	-0.0	-0.0	-0.0	-0.0	-0.0	102622.7265625	-11372.927734375	-145.0364227294922
0.0025	-0.0	-0.0	-0.0	2.500916004180908	32.783878326416016	-570.09033203125	2.8675005435943604	-18.86977767944336	-349.3876037597656	-0.0	-0.0	-0.0	-0.0	-0.0	-0.0	103190.28125	-11261.3681640625	-140.64076232910156
0.003	-0.0	-0.0	-0.0	2.021418571472168	32.53260040283203	-568.8524780273438	2.9727942943573	-19.37123680114746	-351.3034362792969	-0.0	-0.0	-0.0	-0.0	-0.0	-0.0	103460.296875	-11022.318359375	-399.42230224609375
0.0035	-0.0	-0.0	-0.0	2.2745375633239746	32.79998779296875	-566.9148559570312	2.9726109504699707	-20.609455108642575	-352.23052978515625	-0.0	-0.0	-0.0	-0.0	-0.0	-0.0	103805.5234375	-10779.8427734375	-260.3872985839844
0.004	-0.0	-0.0	-0.0	2.483093738555908	32.69566345214844	-563.7923583984375	3.074409008026123	-21.37384796142578	-352.5858154296875	-0.0	-0.0	-0.0	-0.0	-0.0	-0.0	103605.5234375	-10491.8720703125	-220.6285400390625
0.0045000000000000005	-0.0	-0.0	-0.0	2.765377998352051	32.993045806884766	-561.1439819335938	2.868025779724121	-22.38998031616211	-352.75836181640625	-0.0	-0.0	-0.0	-0.0	-0.0	-0.0	103793.75	-10630.0166015625	-166.65428161621094
0.005	-0.0	-0.0	-0.0	2.0078978538513184	32.904048919677734	-559.5553588867188	3.252896785736084	-23.390108108520508	-352.70098876953125	-0.0	-0.0	-0.0	-0.0	-0.0	-0.0	103727.828125	-10084.8681640625	-275.6884155273437
0.0055	-0.0	-0.0	-0.0	2.0675196647644043	32.77143478393555	-558.61474609375	3.2233266830444336	-24.111820220947266	-353.2824401855469	-0.0	-0.0	-0.0	-0.0	-0.0	-0.0	103570.0703125	-10125.357421875	-181.81622314453125
0.006	-0.0	-0.0	-0.0	1.3984148502349854	33.42625427246094	-558.4921875	3.07545804977417	-24.93623161315918	-352.5273742675781	-0.0	-0.0	-0.0	-0.0	-0.0	-0.0	103263.078125	-10191.9580078125	-187.16310119628903
0.006500000000000001	-0.0	-0.0	-0.0	1.071953296661377	33.38005065917969	-556.4378662109375	3.4894497394561768	-25.583690643310547	-353.5151062011719	-0.0	-0.0	-0.0	-0.0	-0.0	-0.0	102991.7109375	-9810.6064453125	-117.86160278320312
0.007	-0.0	-0.0	-0.0	1.0401531457901	33.67612075805664	-554.7855834960938	3.356065511703491	-26.05489730834961	-353.2237854003906	-0.0	-0.0	-0.0	-0.0	-0.0	-0.0	102928.8828125	-9953.216796875	-162.54583740234375
0.0075	-0.0	-0.0	-0.0	0.4330801665782928	33.85432052612305	-553.9068603515625	3.0161666870117188	-26.42312431335449	-352.1810607910156	-0.0	-0.0	-0.0	-0.0	-0.0	-0.0	102817.3203125	-9624.0693359375	-177.5330352783203
0.008	-0.0	-0.0	-0.0	0.0	33.73712158203125	-552.666015625	3.267252206802368	-27.333215713500977	-352.05712890625	-0.0	-0.0	-0.0	-0.0	-0.0	-0.0	102922.4609375	-9803.57421875	-227.3618621826172
0.0085	-0.0	-0.0	-0.0	0.0277312397956848	34.312198638916016	-551.0215454101562	3.561508893966675	-26.776531219482425	-352.76220703125	-0.0	-0.0	-0.0	-0.0	-0.0	-0.0	102517.1953125	-9524.728515625	-152.58848571777344
0.009000000000000001	-0.0	-0.0	-0.0	-0.2247139811515808	33.79921340942383	-549.6090698242188	3.490095615386963	-26.76387405395508	-353.162109375	-0.0	-0.0	-0.0	-0.0	-0.0	-0.0	102243.109375	-9267.513671875	-201.8070373535156
0.0095	-0.0	-0.0	-0.0	-0.4068895578384399	34.09056854248047	-546.3837890625	3.208817720413208	-26.99611091613769	-352.34344482421875	-0.0	-0.0	-0.0	-0.0	-0.0	-0.0	102098.7890625	-9456.072265625	-197.8368225097656
0.01	-0.0	-0.0	-0.0	-0.7177935838699341	34.26858901977539	-546.9525146484375	3.471885681152344	-27.519620895385746	-351.5354309082031	-0.0	-0.0	-0.0	-0.0	-0.0	-0.0	102117.8046875	-9441.4677734375	-246.95233154296875
0.0105	-0.0	-0.0	-0.0	-1.186563491821289	34.33079147338867	-545.4777221679688	3.282299041748047	-26.73090171813965	-352.05230712890625	-0.0	-0.0	-0.0	-0.0	-0.0	-0.0	102183.7421875	-9191.0205078125	-266.2982482910156
0.011	-0.0	-0.0	-0.0	-1.327327847480774	33.82741165161133	-546.1211547851562	3.193588256835937	-26.350589752197266	-352.6278991699219	-0.0	-0.0	-0.0	-0.0	-0.0	-0.0	101867.375	-9137.5029296875	-344.9100341796875
0.0115	-0.0	-0.0	-0.0	-1.532315969467163	33.900997161865234	-543.7931518554688	3.5906660556793213	-26.070322036743164	-351.77862548828125	-0.0	-0.0	-0.0	-0.0	-0.0	-0.0	102235.890625	-9057.509765625	-330.37261962890625
0.012	-0.0	-0.0	-0.0	-1.4904853105545044	33.748897552490234	-542.5060424804688	3.193588256835937	-26.050424575805664	-352.6866149902344	-0.0	-0.0	-0.0	-0.0	-0.0	-0.0	102114.9609375	-9140.298828125	-262.4352722167969
0.0125	-0.0	-0.0	-0.0	-1.8159291744232176	33.780426025390625	-542.9003295898438	3.0630075931549072	-25.686065673828125	-353.5062561035156	-0.0	-0.0	-0.0	-0.0	-0.0	-0.0	102382.765625	-8901.333984375	-473.74945068359375
0.013000000000000001	-0.0	-0.0	-0.0	-1.905262470245361	33.13100814819336	-540.13818359375	3.694503784179688	-25.1613883972168	-353.9780578613281	-0.0	-0.0	-0.0	-0.0	-0.0	-0.0	102777.375	-8948.404296875	-483.6295471191406
0.0135	-0.0	-0.0	-0.0	-2.0678045749664307	33.11522674560547	-539.3057861328125	3.4911534786224365	-25.2186222076416	-355.8473815917969	-0.0	-0.0	-0.0	-0.0	-0.0	-0.0	103158.546875	-9178.0302734375	-513.4667358398438
0.014	-0.0	-0.0	-0.0	-1.7681671380996704	33.375816345214844	-539.5953979492188	3.7197866439819336	-25.099084854125977	-354.8002014160156	-0.0	-0.0	-0.0	-0.0	-0.0	-0.0	103077.8203125	-8943.216796875	-448.6902770996094
0.0145	-0.0	-0.0	-0.0	-2.019671678543091	33.407833099365234	-536.5729370117188	4.033182621002197	-25.228466033935547	-356.4838256835937	-0.0	-0.0	-0.0	-0.0	-0.0	-0.0	103675.71875	-8844.3876953125	-437.90814208984375
0.015	-0.0	-0.0	-0.0	-2.01112699508667	33.0673828125	-537.378662109375	3.709935426712036	-25.28493309020996	-359.4649963378906	-0.0	-0.0	-0.0	-0.0	-0.0	-0.0	104274.9375	-9042.421875	-394.7391052246094
0.0155	-0.0	-0.0	-0.0	-1.7436800003051758	33.107872009277344	-534.8429565429688	4.080696105957031	-25.4366455078125	-360.6107482910156	-0.0	-0.0	-0.0	-0.0	-0.0	-0.0	104427.9296875	-9360.3046875	-364.870361328125
0.016	-0.0	-0.0	-0.0	-1.556982159614563	33.19688034057617	-535.6763305664062	4.798989295959473	-25.64518928527832	-361.5610961914063	-0.0	-0.0	-0.0	-0.0	-0.0	-0.0	105244.2109375	-9415.7333984375	-332.28326416015625
0.0165	-0.0	-0.0	-0.0	-1.5656263828277588	33.35856628417969	-534.3612060546875	4.733872890472412	-25.78993225097656	-364.8000793457031	-0.0	-0.0	-0.0	-0.0	-0.0	-0.0	105452.5	-9413.3359375	-248.62474060058597
0.017	-0.0	-0.0	-0.0	-0.9741570949554444	33.407508850097656	-533.943115234375	5.161386966705322	-26.27981185913086	-365.910888671875	-0.0	-0.0	-0.0	-0.0	-0.0	-0.0	106176.3203125	-9331.234375	-259.1722412109375
0.0175	-0.0	-0.0	-0.0	-0.584620475769043	33.82024002075195	-532.9861450195312	5.266342639923096	-26.75300025939941	-368.989501953125	-0.0	-0.0	-0.0	-0.0	-0.0	-0.0	106744.59375	-9409.2548828125	-127.12420654296876
0.018000000000000002	-0.0	-0.0	-0.0	-0.5187304019927979	33.400840759277344	-533.7203369140625	5.652219772338867	-27.04991149902344	-370.03662109375	-0.0	-0.0	-0.0	-0.0	-0.0	-0.0	107337.890625	-9472.0673828125	-13.740580558776855
0.0185	-0.0	-0.0	-0.0	-0.1784210205078125	34.20951461791992	-532.5297241210938	5.887561321258545	-27.12395477294922	-371.8464965820313	-0.0	-0.0	-0.0	-0.0	-0.0	-0.0	107631.5078125	-9738.72265625	67.54346466064453
0.019	-0.0	-0.0	-0.0	0.1784210205078125	34.14765167236328	-531.8230590820312	5.904125213623047	-28.020965576171875	-374.57513427734375	-0.0	-0.0	-0.0	-0.0	-0.0	-0.0	108049.640625	-9864.111328125	234.3939971923828
0.0195	-0.0	-0.0	-0.0	0.2452850341796875	34.237152099609375	-530.1892700195312	6.597528457641602	-28.14183235168457	-375.8167419433594	-0.0	-0.0	-0.0	-0.0	-0.0	-0.0	108511.8828125	-9810.4306640625	130.58294677734375
0.02	-0.0	-0.0	-0.0	0.9813156127929688	34.38759231567383	-531.2040405273438	6.820399284362793	-28.42314910888672	-377.0187683105469	-0.0	-0.0	-0.0	-0.0	-0.0	-0.0	109146.859375	-10224.0126953125	238.39822387695312
